# xmcd CD database file
#
# Track frame offsets:
#	150
#	33695
#	70887
#	100925
#	133075
#	166380
#	191637
#	203500
#
# Disc length: 3315 seconds
#
# Revision: 0
# Processed by: cddbd v1.5PL3 Copyright (c) Steve Scherf et al.
# Submitted via: CDex 1.51
#
DISCID=700cf108
DTITLE=Ron Carter - Plays JAZZ
DYEAR=1900
DGENRE=Jazz
TTITLE0=SOMEDAY MY PRINCE WILL COME
TTITLE1=MY FOOLISH HEART
TTITLE2=AIREGIN
TTITLE3=MR.BOW-TIE
TTITLE4=DJANGO
TTITLE5=YOU AND THE NIGHT AND THE MUSIC
TTITLE6=JOSHUA FIT DE BATTLE OB JERICHO
TTITLE7=BLUES FOR D.P.
EXTD=
EXTT0=
EXTT1=
EXTT2=
EXTT3=
EXTT4=
EXTT5=
EXTT6=
EXTT7=
PLAYORDER=
